#N canvas 218 177 879 641 12;
#X obj 112 513 *~;
#X obj 105 558 dac~;
#X floatatom 217 503 5 0 0 0 - - - 0;
#N canvas 65 560 581 490 oscillators 0;
#X obj 198 239 expr~ $v1 *2 + 1;
#X floatatom 178 124 5 0 0 0 - - - 0;
#X obj 176 70 inlet;
#X obj 319 73 hradio 19 1 0 3 empty empty empty 0 -10 0 12 #fcfcfc #000000 #000000 0;
#X obj 373 144 == 2;
#X obj 329 192 noise~;
#X obj 331 240 *~ 0;
#X obj 215 323 +~;
#X obj 214 371 outlet~;
#X obj 275 145 == 0;
#X obj 147 240 *~ 0;
#X obj 201 195 phasor~;
#X obj 206 271 *~ 0;
#X obj 328 146 == 1;
#X obj 127 192 osc~ 220;
#X obj 455 30 loadbang;
#X obj 231 12 receive oscillator_type;
#X connect 0 0 12 0;
#X connect 1 0 5 0;
#X connect 1 0 11 0;
#X connect 1 0 14 0;
#X connect 2 0 1 0;
#X connect 3 0 4 0;
#X connect 3 0 9 0;
#X connect 3 0 13 0;
#X connect 4 0 6 1;
#X connect 5 0 6 0;
#X connect 6 0 7 1;
#X connect 7 0 8 0;
#X connect 9 0 10 1;
#X connect 10 0 7 0;
#X connect 11 0 0 0;
#X connect 12 0 7 1;
#X connect 13 0 12 1;
#X connect 14 0 10 0;
#X connect 15 0 3 0;
#X connect 16 0 3 0;
#X restore 76 194 pd oscillators;
#X text 155 558 ~ -> Audio-Stream;
#N canvas 446 492 450 300 filters 0;
#X obj 25 211 bob~;
#X msg 77 67 300;
#X msg 109 65 1.5;
#X obj 84 31 loadbang;
#X text 194 238 loadbang passes message arguments to filter on startup;
#X obj 24 54 inlet~;
#X obj 27 250 outlet~;
#X floatatom 132 153 5 0 0 0 - - - 0;
#X obj 207 94 receive low_pass_frequency;
#X obj 170 58 receive low_pass_resonance;
#X connect 0 0 6 0;
#X connect 1 0 0 1;
#X connect 2 0 0 2;
#X connect 3 0 1 0;
#X connect 3 0 2 0;
#X connect 5 0 0 0;
#X connect 7 0 0 1;
#X connect 8 0 7 0;
#X connect 9 0 0 2;
#X restore 77 231 pd filters;
#X floatatom 215 264 5 0 0 0 - - - 0;
#N canvas 212 190 450 300 amplifiers 0;
#X obj 70 187 vline~;
#X obj 74 43 / 127;
#X msg 74 148 \$1 5 \, \$2 200 5;
#X obj 112 85 * 0.5;
#X obj 75 115 pack;
#X obj 161 46 sel 0;
#X obj 73 8 inlet;
#X obj 161 8 inlet;
#X obj 25 227 *~;
#X obj 16 9 inlet~;
#X obj 25 261 outlet~;
#X obj 272 20 receive releaseRate;
#X floatatom 275 50 5 0 0 0 - - - 0;
#X obj 255 116 f;
#X obj 237 79 bng 19 250 50 0 empty empty empty 0 -10 0 12 #fcfcfc #000000 #000000;
#X msg 258 173 0 \$1;
#X obj 323 60 loadbang;
#X msg 323 89 700;
#X text 358 90 default;
#X connect 0 0 8 1;
#X connect 1 0 3 0;
#X connect 1 0 4 0;
#X connect 2 0 0 0;
#X connect 3 0 4 1;
#X connect 4 0 2 0;
#X connect 5 0 14 0;
#X connect 6 0 1 0;
#X connect 7 0 5 0;
#X connect 8 0 10 0;
#X connect 9 0 8 0;
#X connect 11 0 12 0;
#X connect 12 0 13 1;
#X connect 13 0 15 0;
#X connect 14 0 13 0;
#X connect 15 0 0 0;
#X connect 16 0 17 0;
#X connect 17 0 13 1;
#X restore 68 329 pd amplifiers;
#X obj 473 96 send releaseRate;
#X msg 471 58 400;
#N canvas 1174 369 450 300 random_note 0;
#X obj 38 69 metro 200;
#X obj 38 26 inlet;
#X obj 38 105 bng 19 250 50 0 empty empty empty 0 -10 0 12 #fcfcfc #000000 #000000;
#X obj 38 142 random 20;
#X obj 39 179 + 50;
#X obj 36 215 mtof;
#X obj 36 251 outlet;
#X connect 0 0 2 0;
#X connect 1 0 0 0;
#X connect 2 0 3 0;
#X connect 3 0 4 0;
#X connect 4 0 5 0;
#X connect 5 0 6 0;
#X restore 79 123 pd random_note;
#X obj 78 85 tgl 19 0 empty empty empty 0 -10 0 12 #fcfcfc #000000 #000000 0 1;
#X floatatom 76 161 5 0 0 0 - - - 0;
#X obj 78 48 loadbang;
#X msg 229 476 0.5;
#X obj 230 441 loadbang;
#X obj 220 211 loadbang;
#X msg 221 238 100;
#N canvas 171 807 707 300 distortion 1;
#X obj 171 69 inlet~;
#X obj 154 261 outlet~;
#X obj 156 168 *~;
#X obj 265 57 tgl 19 0 empty empty empty 0 -10 0 12 #ffffff #000000 #000000 0 1;
#X obj 265 90 select 1 0;
#X msg 305 131 1;
#X msg 265 131 40;
#X obj 153 216 clip~ -0.5 0.5;
#X obj 262 19 receive distortion;
#X obj 397 51 loadbang;
#X msg 322 46 0;
#X connect 0 0 2 0;
#X connect 2 0 7 0;
#X connect 3 0 4 0;
#X connect 4 0 6 0;
#X connect 4 1 5 0;
#X connect 5 0 2 1;
#X connect 6 0 2 1;
#X connect 7 0 1 0;
#X connect 8 0 3 0;
#X connect 9 0 10 0;
#X connect 10 0 3 0;
#X restore 121 388 pd distortion;
#X connect 0 0 1 0;
#X connect 0 0 1 1;
#X connect 2 0 0 1;
#X connect 3 0 5 0;
#X connect 5 0 7 0;
#X connect 6 0 7 1;
#X connect 7 0 18 0;
#X connect 9 0 8 0;
#X connect 10 0 12 0;
#X connect 11 0 10 0;
#X connect 12 0 3 0;
#X connect 13 0 11 0;
#X connect 14 0 2 0;
#X connect 15 0 14 0;
#X connect 16 0 17 0;
#X connect 17 0 6 0;
#X connect 18 0 0 0;
